<svg width="200" height="200" viewBox="0 0 200 200" xmlns="http://www.w3.org/2000/svg">
  <!-- Background Circle -->
  <circle cx="100" cy="100" r="95" fill="#00D9FF" stroke="#000" stroke-width="5"/>
  
  <!-- Location Pin -->
  <path d="M100 50 C85 50 75 60 75 75 C75 95 100 120 100 120 C100 120 125 95 125 75 C125 60 115 50 100 50 Z" 
        fill="#FFC700" stroke="#000" stroke-width="4"/>
  
  <!-- Pin Center -->
  <circle cx="100" cy="75" r="8" fill="#000"/>
  
  <!-- Airplane -->
  <path d="M130 130 L150 125 L155 130 L145 135 L148 145 L143 145 L140 135 L125 140 L130 130 Z" 
        fill="#FF6B6B" stroke="#000" stroke-width="3"/>
  
  <!-- Person silhouette -->
  <circle cx="70" cy="145" r="8" fill="#4ADE80" stroke="#000" stroke-width="3"/>
  <path d="M70 153 L70 170 M70 160 L60 165 M70 160 L80 165 M65 175 L70 170 L75 175" 
        stroke="#000" stroke-width="3" fill="none" stroke-linecap="round"/>
</svg>
